<svg id="Layer_1" data-name="Layer 1" xmlns="http://www.w3.org/2000/svg" viewBox="0 0 500 500">
    <title>Artboard 1</title>
    <g id="Armor_Class" data-name="Armor Class">
        <path
            d="M286,229.54l-1.3-.55c-3.53-1.49-6-5.5-7.36-11.91l-.26-1.22-.18-.86-.84-.26-25.32-7.91-.45-.14-.45.14-25.32,7.91-.84.26-.18.86-.26,1.22c-1.35,6.41-3.83,10.42-7.36,11.91l-1.3.55-.91.39v15.48a25.3,25.3,0,0,0,1.54,8.85c6.79,18.38,18.13,30.91,33.72,37.22l.8.32.56.23.56-.23.8-.32c15.59-6.31,26.93-18.84,33.72-37.23a25.5,25.5,0,0,0,1.55-8.84V229.93Zm-.58,15.87a24.15,24.15,0,0,1-1.45,8.32c-6.64,18-17.7,30.21-32.88,36.36l-.8.32-.8-.32c-15.18-6.15-26.24-18.38-32.87-36.35a23.77,23.77,0,0,1-1.45-8.33V230.92l1.29-.55c4-1.69,6.79-6.06,8.25-13l.26-1.22,25.32-7.91,25.32,7.91.26,1.22c1.46,6.92,4.24,11.29,8.25,13l1.3.55Z"
        />
        <path
            d="M272.55,219l-22.22-6.94L228.11,219c-1.68,7.18-4.79,12-9.28,14.28v12.13a20.17,20.17,0,0,0,1.23,7.07c6.18,16.75,16.36,28.19,30.27,34,13.91-5.83,24.09-17.27,30.27-34a20.34,20.34,0,0,0,1.23-7.07V233.28C277.34,231,274.23,226.18,272.55,219Zm8,26.41a19.31,19.31,0,0,1-1.15,6.64c-6,16.21-15.78,27.34-29.1,33.09-13.32-5.75-23.11-16.88-29.1-33.09a19.11,19.11,0,0,1-1.15-6.64V234c4.31-2.51,7.36-7.23,9.07-14l21.18-6.61L271.51,220c1.71,6.81,4.76,11.53,9.07,14Zm-8-26.41-22.22-6.94L228.11,219c-1.68,7.18-4.79,12-9.28,14.28v12.13a20.17,20.17,0,0,0,1.23,7.07c6.18,16.75,16.36,28.19,30.27,34,13.91-5.83,24.09-17.27,30.27-34a20.34,20.34,0,0,0,1.23-7.07V233.28C277.34,231,274.23,226.18,272.55,219Zm8,26.41a19.31,19.31,0,0,1-1.15,6.64c-6,16.21-15.78,27.34-29.1,33.09-13.32-5.75-23.11-16.88-29.1-33.09a19.11,19.11,0,0,1-1.15-6.64V234c4.31-2.51,7.36-7.23,9.07-14l21.18-6.61L271.51,220c1.71,6.81,4.76,11.53,9.07,14Zm-8-26.41-22.22-6.94L228.11,219c-1.68,7.18-4.79,12-9.28,14.28v12.13a20.17,20.17,0,0,0,1.23,7.07c6.18,16.75,16.36,28.19,30.27,34,13.91-5.83,24.09-17.27,30.27-34a20.34,20.34,0,0,0,1.23-7.07V233.28C277.34,231,274.23,226.18,272.55,219Zm8,26.41a19.31,19.31,0,0,1-1.15,6.64c-6,16.21-15.78,27.34-29.1,33.09-13.32-5.75-23.11-16.88-29.1-33.09a19.11,19.11,0,0,1-1.15-6.64V234c4.31-2.51,7.36-7.23,9.07-14l21.18-6.61L271.51,220c1.71,6.81,4.76,11.53,9.07,14Z"
        />
    </g>
</svg>
