<svg id="Layer_1" data-name="Layer 1" xmlns="http://www.w3.org/2000/svg" viewBox="0 0 500 500"><defs><style>.cls-1{fill:#fff;stroke-width:1.5px;}.cls-1,.cls-2,.cls-3{stroke:#000;}.cls-1,.cls-2{stroke-miterlimit:10;}.cls-2,.cls-3{fill:none;}.cls-3{stroke-linecap:round;stroke-linejoin:round;stroke-width:1.25px;}</style></defs><title>Artboard 1</title><g id="Initiative_Speed" data-name="Initiative / Speed"><polygon class="cls-1" points="288.98 220.14 288.98 278.27 281.37 285.88 218.41 285.88 215.81 283.28 210.81 278.27 210.81 220.15 215.81 215.15 218.41 212.54 281.38 212.54 283.98 215.14 288.98 220.14"/><polygon class="cls-2" points="283.98 215.14 283.98 283.27 281.37 285.88 218.41 285.88 215.81 283.28 215.81 215.15 218.41 212.54 281.38 212.54 283.98 215.14"/><path class="cls-3" d="M289,226.72v45a45.5,45.5,0,0,1-12.84,14.18H223.65a45.29,45.29,0,0,1-7.85-7.17,44.75,44.75,0,0,1-5-7V226.74a44.75,44.75,0,0,1,5-7,45.29,45.29,0,0,1,7.85-7.17h52.48A45.5,45.5,0,0,1,289,226.72Z"/></g></svg>