<svg id="Layer_1" data-name="Layer 1" xmlns="http://www.w3.org/2000/svg" viewBox="0 0 500 500"><defs><style>.cls-1,.cls-2,.cls-3{fill:none;stroke:#000;stroke-miterlimit:10;}.cls-1{stroke-width:2px;}.cls-3{stroke-width:0.87px;}</style></defs><title>Artboard 1</title><g id="Inspiration"><path class="cls-1" d="M204.58,228v43.33H198c-2.59-3.43-7.55-5.75-13.23-5.75s-10.63,2.32-13.22,5.75h-6.61V228h6.61c2.59,3.43,7.54,5.75,13.22,5.75S195.38,231.43,198,228Z"/><path d="M204.58,228v8.45a23.9,23.9,0,0,0-7.64-7.27,11.45,11.45,0,0,0,1-1.18Z"/><path d="M172.55,270.15a11.3,11.3,0,0,0-1,1.18h-6.61v-8.45A23.8,23.8,0,0,0,172.55,270.15Z"/><path d="M171.52,228a10.36,10.36,0,0,0,1,1.18,23.8,23.8,0,0,0-7.64,7.27V228Z"/><path d="M204.58,262.88v8.45H198a12.61,12.61,0,0,0-1-1.18A23.8,23.8,0,0,0,204.58,262.88Z"/><path class="cls-2" d="M184.74,265.58a19,19,0,0,1,8.57,2,19.79,19.79,0,0,1-17.13,0A18.91,18.91,0,0,1,184.74,265.58Z"/><path class="cls-2" d="M184.74,233.75a18.91,18.91,0,0,1-8.56-2,19.79,19.79,0,0,1,17.13,0A19,19,0,0,1,184.74,233.75Z"/><polyline class="cls-3" points="326.18 262.17 204.58 262.17 204.58 237.16 326.19 237.16"/><path class="cls-2" d="M334.58,240.78v17.75a31.56,31.56,0,0,0-3.78,3.63,32.31,32.31,0,0,0-3,4H204.58v-33H327.77a33.33,33.33,0,0,0,3,4A32.27,32.27,0,0,0,334.58,240.78Z"/><path class="cls-2" d="M334.58,240.78v17.75a31.56,31.56,0,0,0-3.78,3.63,32.31,32.31,0,0,0-3,4H204.58v-33H327.77a33.33,33.33,0,0,0,3,4A32.27,32.27,0,0,0,334.58,240.78Z"/><path class="cls-3" d="M334.58,249.66c0,6.2-5.74,11.92-15.42,16.5H204.58v-33h114.6C328.84,237.74,334.58,243.46,334.58,249.66Z"/><line class="cls-3" x1="207.75" y1="237.16" x2="207.75" y2="262.16"/></g></svg>