<svg id="Layer_1" data-name="Layer 1" xmlns="http://www.w3.org/2000/svg" viewBox="0 0 500 500"><defs><style>.cls-1,.cls-2,.cls-3{fill:none;stroke:#000;}.cls-1,.cls-2{stroke-miterlimit:10;}.cls-2{stroke-width:0.87px;}.cls-3{stroke-linecap:round;stroke-linejoin:round;stroke-width:2px;}.cls-4{fill:#fff;}</style></defs><title>Artboard 1</title><g id="Proficiency_Bonus" data-name="Proficiency Bonus"><path class="cls-1" d="M202.35,233.08H329a33.33,33.33,0,0,0,3,4,32.27,32.27,0,0,0,3.78,3.62v17.75a31.56,31.56,0,0,0-3.78,3.63,32.31,32.31,0,0,0-3,4H203.54"/><path class="cls-1" d="M329,233.08a33.33,33.33,0,0,0,3,4,32.27,32.27,0,0,0,3.78,3.62v17.75a31.56,31.56,0,0,0-3.78,3.63,32.31,32.31,0,0,0-3,4"/><path class="cls-2" d="M207.67,233.08H320.43c9.66,4.58,15.4,10.3,15.4,16.5s-5.74,11.92-15.42,16.5h-113"/><ellipse class="cls-3" cx="187.23" cy="249.58" rx="23.23" ry="22.79"/><path class="cls-4" d="M203.88,235.17a26.18,26.18,0,0,1-3.31-.24,21.89,21.89,0,0,1-6.33-1.83,13.63,13.63,0,0,1-1.46-.78,9.62,9.62,0,0,1-1.4-.87l-1.34-1c-.44-.31-.83-.65-1.29-.93A12.08,12.08,0,0,0,185,227.9a12.34,12.34,0,0,0-2.19-.35c-.38,0-.77,0-1.16,0a19.41,19.41,0,0,0-5,.7l-.2,0a36.08,36.08,0,0,0-11.52,5.82A35.91,35.91,0,0,1,176.32,228c.68-.2,1.38-.38,2.08-.53h0a18.77,18.77,0,0,1,3.59-.37l.79,0a13.06,13.06,0,0,1,3.75.73,11.53,11.53,0,0,1,2.53,1.21c.48.28.91.65,1.36,1l.36.26a17,17,0,0,1-1.89-2.27l-.08-.12a13.45,13.45,0,0,1-1.18-2,10.2,10.2,0,0,1-.41-1,9.31,9.31,0,0,1-.41-3.55,9.1,9.1,0,0,0,.55,3.51,10.59,10.59,0,0,0,.48,1.09,14.27,14.27,0,0,0,1.27,2l.06.08a19.52,19.52,0,0,0,2.37,2.52,22,22,0,0,0,2.1,1.64,1.19,1.19,0,0,0,.15.09,4.74,4.74,0,0,0,.72.34,21.08,21.08,0,0,0,6.14,1.7c.81.1,1.62.16,2.44.18-.18-.18-.36-.36-.55-.52-.61,0-1.23-.08-1.83-.16a20.43,20.43,0,0,1-6-1.65,4.24,4.24,0,0,1-.68-.33H194l-.08-.06a20.29,20.29,0,0,1-2-1.59,18.32,18.32,0,0,1-2-2.07l-.36-.45a12.84,12.84,0,0,1-1.09-1.68,8.45,8.45,0,0,1-.59-1.27,8.56,8.56,0,0,1-.52-3.32l-1-.06a9.84,9.84,0,0,0,.43,3.74c.1.29.21.58.34.88a13.73,13.73,0,0,0,1.11,2l.13.2a4.54,4.54,0,0,0-.45-.21,13.59,13.59,0,0,0-5.07-1.23l-.81,0-1,0a20.87,20.87,0,0,0-4.81.89,36.3,36.3,0,0,0-11.61,6.21l.61.79a36.7,36.7,0,0,1,9.1-5c.75-.29,1.5-.54,2.26-.75a19.1,19.1,0,0,1,5.07-.73c.38,0,.76,0,1.12,0l.67.07a11.87,11.87,0,0,1,5.07,1.84,7.4,7.4,0,0,1,.79.55l.49.37,1.33,1a8,8,0,0,0,1.23.78l.22.13.49.27a7.26,7.26,0,0,0,1,.54,22.26,22.26,0,0,0,6.44,1.85,24.93,24.93,0,0,0,3.49.25h.33C204.18,235.5,204,235.33,203.88,235.17Z"/><path d="M215.6,233.18a47.83,47.83,0,0,1-8.41,2,29.59,29.59,0,0,1-3.08.19,2.73,2.73,0,0,0-.23-.25,26.18,26.18,0,0,1-3.31-.24,21.89,21.89,0,0,1-6.33-1.83,13.63,13.63,0,0,1-1.46-.78,9.62,9.62,0,0,1-1.4-.87l-1.34-1c-.44-.31-.83-.65-1.29-.93A12.08,12.08,0,0,0,185,227.9a12.34,12.34,0,0,0-2.19-.35c-.38,0-.77,0-1.16,0a19.41,19.41,0,0,0-5,.7l-.2,0a36.08,36.08,0,0,0-11.52,5.82A35.91,35.91,0,0,1,176.32,228c.68-.2,1.38-.38,2.08-.53h0a18.77,18.77,0,0,1,3.59-.37l.79,0a13.06,13.06,0,0,1,3.75.73,11.53,11.53,0,0,1,2.53,1.21c.48.28.91.65,1.36,1l.36.26a17,17,0,0,1-1.89-2.27l-.08-.12a13.45,13.45,0,0,1-1.18-2,10.2,10.2,0,0,1-.41-1,9.31,9.31,0,0,1-.41-3.55,9.1,9.1,0,0,0,.55,3.51,10.59,10.59,0,0,0,.48,1.09,14.27,14.27,0,0,0,1.27,2l.06.08a19.52,19.52,0,0,0,2.37,2.52,22,22,0,0,0,2.1,1.64,1.19,1.19,0,0,0,.15.09,4.74,4.74,0,0,0,.72.34,21.08,21.08,0,0,0,6.14,1.7c.81.1,1.62.16,2.44.18l-.26-.26.87,0a28.16,28.16,0,0,0,7.49-1.06c.67-.19,1.43,0,2.09-.26a2.51,2.51,0,0,1,.47,0c.3,0,.25-.23.35.05a.74.74,0,0,1,0,.25C214.16,233.37,215.88,233.08,215.6,233.18Z"/><path class="cls-4" d="M204.35,263.48H204a24.93,24.93,0,0,0-3.49.25,22.26,22.26,0,0,0-6.44,1.85,7.26,7.26,0,0,0-1,.54l-.49.27-.22.13a8,8,0,0,0-1.23.78l-1.33,1-.49.37a7.4,7.4,0,0,1-.79.55,11.87,11.87,0,0,1-5.07,1.84l-.67.07c-.36,0-.74,0-1.12,0a19.1,19.1,0,0,1-5.07-.73c-.76-.21-1.51-.46-2.26-.75a36.7,36.7,0,0,1-9.1-5l-.61.79a36.3,36.3,0,0,0,11.61,6.21,20.87,20.87,0,0,0,4.81.89l1,0,.81,0a13.59,13.59,0,0,0,5.07-1.23l.45-.21-.13.2a13.73,13.73,0,0,0-1.11,2c-.13.3-.24.59-.34.88a9.84,9.84,0,0,0-.43,3.74l1-.06a8.56,8.56,0,0,1,.52-3.32,8.45,8.45,0,0,1,.59-1.27,12.84,12.84,0,0,1,1.09-1.68l.36-.45a18.32,18.32,0,0,1,2-2.07,20.29,20.29,0,0,1,2-1.59l.08-.06h.06a4.24,4.24,0,0,1,.68-.33,20.43,20.43,0,0,1,6-1.65c.6-.08,1.22-.13,1.83-.16.19-.16.37-.34.55-.52-.82,0-1.63.08-2.44.18a21.08,21.08,0,0,0-6.14,1.7,4.74,4.74,0,0,0-.72.34l-.15.09a22,22,0,0,0-2.1,1.64,19.52,19.52,0,0,0-2.37,2.52l-.06.08a14.27,14.27,0,0,0-1.27,2,10.59,10.59,0,0,0-.48,1.09,9.1,9.1,0,0,0-.55,3.51,9.31,9.31,0,0,1,.41-3.55,10.2,10.2,0,0,1,.41-1,13.45,13.45,0,0,1,1.18-2.05l.08-.12a17,17,0,0,1,1.89-2.27l-.36.26c-.45.31-.88.68-1.36,1a11.53,11.53,0,0,1-2.53,1.21,13.06,13.06,0,0,1-3.75.73l-.79,0a18.77,18.77,0,0,1-3.59-.37s0,0,0,0c-.7-.15-1.4-.33-2.08-.53a35.91,35.91,0,0,1-11.44-6.12,36.08,36.08,0,0,0,11.52,5.82l.2.05a19.41,19.41,0,0,0,5,.7c.39,0,.78,0,1.16,0a12.34,12.34,0,0,0,2.19-.35,12.08,12.08,0,0,0,3.79-1.64c.46-.28.85-.62,1.29-.93l1.34-1a9.62,9.62,0,0,1,1.4-.87,13.63,13.63,0,0,1,1.46-.78,21.89,21.89,0,0,1,6.33-1.83,26.18,26.18,0,0,1,3.31-.24C204.07,263.82,204.21,263.65,204.35,263.48Z"/><path d="M215.63,266a47.83,47.83,0,0,0-8.41-2.05,29.59,29.59,0,0,0-3.08-.19,2.73,2.73,0,0,1-.23.25,26.18,26.18,0,0,0-3.31.24,21.89,21.89,0,0,0-6.33,1.83,13.63,13.63,0,0,0-1.46.78,9.62,9.62,0,0,0-1.4.87l-1.34,1c-.44.31-.83.65-1.29.93a12.08,12.08,0,0,1-3.79,1.64,12.34,12.34,0,0,1-2.19.35c-.38,0-.77,0-1.16,0a19.41,19.41,0,0,1-5-.7l-.2-.05a36.08,36.08,0,0,1-11.52-5.82,35.91,35.91,0,0,0,11.44,6.12c.68.2,1.38.38,2.08.53,0,0,0,0,0,0a18.77,18.77,0,0,0,3.59.37l.79,0a13.06,13.06,0,0,0,3.75-.73,11.53,11.53,0,0,0,2.53-1.21c.48-.28.91-.65,1.36-1l.36-.26a17,17,0,0,0-1.89,2.27l-.08.12a13.45,13.45,0,0,0-1.18,2.05,10.2,10.2,0,0,0-.41,1,9.31,9.31,0,0,0-.41,3.55,9.1,9.1,0,0,1,.55-3.51,10.59,10.59,0,0,1,.48-1.09,14.27,14.27,0,0,1,1.27-2l.06-.08a19.52,19.52,0,0,1,2.37-2.52,22,22,0,0,1,2.1-1.64l.15-.09a4.74,4.74,0,0,1,.72-.34,21.08,21.08,0,0,1,6.14-1.7c.81-.1,1.62-.16,2.44-.18l-.26.26.87,0a27.74,27.74,0,0,1,7.48,1.06c.67.19,1.44,0,2.09.26a2.51,2.51,0,0,0,.47,0c.3,0,.26.23.36-.05a.78.78,0,0,0,0-.26C214.19,265.77,215.91,266.07,215.63,266Z"/></g></svg>