<svg id="Layer_1" data-name="Layer 1" xmlns="http://www.w3.org/2000/svg" viewBox="0 0 500 500"><defs><style>.cls-1,.cls-3{fill:#fff;}.cls-2{fill:none;stroke-width:0.99px;}.cls-2,.cls-3{stroke:#000;stroke-miterlimit:10;}</style></defs><title>Artboard 1</title><g id="Strength_Box" data-name="Strength Box"><path class="cls-1" d="M286.69,221.15a6.43,6.43,0,0,0-.83,1"/><path class="cls-1" d="M285.8,222.21c-.12.18-.23.36-.34.55"/><path class="cls-1" d="M285.44,222.79c-.1.19-.19.38-.28.58"/><path class="cls-1" d="M286.69,230.72a7.51,7.51,0,0,1-2.06-4.11"/><path class="cls-1" d="M288.13,222.67a7.82,7.82,0,0,0-1.44-4.55"/><path class="cls-1" d="M286.69,265.39a8.86,8.86,0,0,1,0,11.09v10.29H213V276.48a8.86,8.86,0,0,1,0-11.09V252.21c-.54-6.62-1.61-13-2.58-19.5a9.28,9.28,0,0,0,2.58-2,6.21,6.21,0,0,0,2.06-4.11,4.36,4.36,0,0,0,0-.51,4.44,4.44,0,0,0,0-.63,1,1,0,0,0,0-.24,4.51,4.51,0,0,0-.09-.53,0,0,0,0,0,0,0,4.23,4.23,0,0,0-.13-.51c0-.11-.06-.22-.1-.33l0-.08c-.06-.16-.12-.32-.19-.47a4.66,4.66,0,0,0-.25-.5,3.82,3.82,0,0,0-.29-.48,2.55,2.55,0,0,0-.28-.39l0-.06a3,3,0,0,1-.63-1.81v-4.68a3.51,3.51,0,0,1,.17-1,5.65,5.65,0,0,0,0-3.29,5.62,5.62,0,0,1-.18-1.53v-1.88a7.58,7.58,0,0,0,6.6-5.39h60.47a7.58,7.58,0,0,0,6.6,5.39v1.88a5.26,5.26,0,0,1-.19,1.53,5.76,5.76,0,0,0,0,3.29,3.51,3.51,0,0,1,.17,1v4.68a2.92,2.92,0,0,1-.64,1.81l-.19.27a.21.21,0,0,0-.06.08,4.53,4.53,0,0,0-.34.55l0,0a6.19,6.19,0,0,0-.28.58,6,6,0,0,0-.22.59.65.65,0,0,0,0,.13,5.66,5.66,0,0,0-.15.59s0,0,0,0a5.07,5.07,0,0,0-.11.68,5.69,5.69,0,0,0,0,.72,4.36,4.36,0,0,0,0,.51,6.21,6.21,0,0,0,2.06,4.11,9.28,9.28,0,0,0,2.58,2c-1,6.47-2,12.88-2.58,19.5Z"/><path class="cls-1" d="M213.65,221.86a6,6,0,0,0-.63-.71"/><path class="cls-1" d="M213,230.72a7.51,7.51,0,0,0,2.06-4.11"/><path class="cls-1" d="M211.57,222.67a7.82,7.82,0,0,1,1.44-4.55"/><path d="M286.45,252.19c.42-6.56,1.4-13.07,2.28-19.56l.3.56h0a9.8,9.8,0,0,1-2.83-2.32,8.48,8.48,0,0,1-1.76-3.21,6.35,6.35,0,0,1,.15-3.64,7.2,7.2,0,0,1,1.93-3.05.25.25,0,0,1,.36,0,.26.26,0,0,1,0,.36,6.68,6.68,0,0,0-1.67,2.87,5.64,5.64,0,0,0,0,3.23,7.58,7.58,0,0,0,1.69,2.81,8.8,8.8,0,0,0,2.62,2h0l.35.2-.06.36c-1.08,6.47-2.25,12.92-2.88,19.44a.23.23,0,0,1-.26.21A.23.23,0,0,1,286.45,252.19Z"/><path d="M286.1,227.9a5,5,0,0,0,1.5-2.14,7.72,7.72,0,0,0,.26-2.59,8.54,8.54,0,0,0-.39-2.54,7.54,7.54,0,0,0-1.19-2.22l.81-.58a8.38,8.38,0,0,1,1.12,2.59,8.91,8.91,0,0,1,.19,2.76,8,8,0,0,1-.55,2.68A5.1,5.1,0,0,1,286.1,227.9Z"/><path class="cls-2" d="M288.64,270.94a8.79,8.79,0,0,1-1.95,5.54v10.29H213V276.48a8.86,8.86,0,0,1,0-11.09V230.72a6.16,6.16,0,0,0,2.09-4.62,6.89,6.89,0,0,0-1.46-4.24,3,3,0,0,1-.63-1.81v-4.68a3.51,3.51,0,0,1,.17-1,5.65,5.65,0,0,0,0-3.29,5.62,5.62,0,0,1-.18-1.53v-1.88a7.58,7.58,0,0,0,6.6-5.39h60.47a7.58,7.58,0,0,0,6.6,5.39v1.88a5.26,5.26,0,0,1-.19,1.53,5.76,5.76,0,0,0,0,3.29,3.51,3.51,0,0,1,.17,1v4.68a2.92,2.92,0,0,1-.64,1.81,6.88,6.88,0,0,0-1.45,4.24,6.16,6.16,0,0,0,2.09,4.62v34.67A8.84,8.84,0,0,1,288.64,270.94Z"/><path d="M212.78,252.23c-.63-6.52-1.8-13-2.88-19.44l-.06-.36.35-.2h0a8.8,8.8,0,0,0,2.62-2,7.58,7.58,0,0,0,1.69-2.81,5.55,5.55,0,0,0,0-3.23,6.56,6.56,0,0,0-1.66-2.87.25.25,0,0,1,0-.36.26.26,0,0,1,.36,0,7.2,7.2,0,0,1,1.93,3.05,6.35,6.35,0,0,1,.15,3.64,8.62,8.62,0,0,1-1.76,3.21,9.71,9.71,0,0,1-2.84,2.32h0l.29-.56c.89,6.49,1.86,13,2.29,19.56a.24.24,0,1,1-.47,0Z"/><path d="M213.6,227.9a5.1,5.1,0,0,1-1.75-2,8,8,0,0,1-.55-2.68,8.62,8.62,0,0,1,.19-2.76,8.38,8.38,0,0,1,1.12-2.59l.81.58a7.32,7.32,0,0,0-1.19,2.22,8.23,8.23,0,0,0-.39,2.54,7.24,7.24,0,0,0,.26,2.59A5,5,0,0,0,213.6,227.9Z"/><path d="M287.09,276.78a53.47,53.47,0,0,1-5.35,5.69q-2.82,2.65-5.82,5.12a131.14,131.14,0,0,1-12.54,9.09h0l-.2-.52c2.49-.41,5-.87,7.44-1.42a53.3,53.3,0,0,0,7.26-2.08h0l0,.45a14.17,14.17,0,0,0-5.08-1.89,27.2,27.2,0,0,0-5.49-.35v0a26.24,26.24,0,0,1,5.53.12,14.58,14.58,0,0,1,5.31,1.71l.45.27-.49.18h0a55.16,55.16,0,0,1-7.32,2.13c-2.47.56-5,1-7.47,1.45l-1.3.22,1.1-.74h0A132,132,0,0,0,275.42,287c2-1.66,3.87-3.38,5.71-5.16a52.45,52.45,0,0,0,5.15-5.64Z"/><path d="M270.88,273.55A7.3,7.3,0,0,1,272.6,276a9.36,9.36,0,0,1,.71,2.88,12,12,0,0,1-.17,2.93c-.08.48-.23.95-.34,1.42l-.47,1.38.4-1.4c.09-.48.21-1,.27-1.43a11.49,11.49,0,0,0,0-2.87,8.74,8.74,0,0,0-.81-2.72,7,7,0,0,0-1.68-2.21l0,0a.29.29,0,0,1,.37-.44Z"/><path d="M273.27,278.81a4.55,4.55,0,0,0,1.23,3.29,3.77,3.77,0,0,0,1.55.92,5.39,5.39,0,0,0,.88.22c.31,0,.61.05.92.08-.31,0-.61,0-.92-.05a6.85,6.85,0,0,1-.9-.19,3.9,3.9,0,0,1-1.61-.9,4.14,4.14,0,0,1-1-1.54,5.22,5.22,0,0,1-.34-1.84.11.11,0,1,1,.22,0h0Z"/><path d="M278.6,284.35a30.64,30.64,0,0,1,6.2-2.24,11.28,11.28,0,0,1,3.27-.35,3.19,3.19,0,0,1,1.59.43.92.92,0,0,1,.39.71,1.42,1.42,0,0,1-.22.78,1.43,1.43,0,0,0,.18-.78.85.85,0,0,0-.39-.65,3.16,3.16,0,0,0-1.55-.33,11.17,11.17,0,0,0-3.19.49,30.73,30.73,0,0,0-6,2.5h0a.31.31,0,0,1-.43-.13.33.33,0,0,1,.13-.43Z"/><path d="M287.19,263.42l-1,11.67V263.38a.5.5,0,0,1,.5-.5.5.5,0,0,1,.5.5Z"/><path d="M213.41,276.19a53.62,53.62,0,0,0,5.16,5.64c1.84,1.78,3.75,3.5,5.71,5.16a130.67,130.67,0,0,0,12.35,9.21h0l1.1.74-1.3-.22c-2.5-.42-5-.89-7.47-1.45a55.16,55.16,0,0,1-7.32-2.13h0l-.5-.18.46-.27A14.58,14.58,0,0,1,226.9,291a26.23,26.23,0,0,1,5.53-.12v0a27.2,27.2,0,0,0-5.49.35,14.17,14.17,0,0,0-5.08,1.89l0-.45h0a53.3,53.3,0,0,0,7.26,2.08c2.46.55,4.95,1,7.44,1.42l-.2.52h0a131.14,131.14,0,0,1-12.54-9.09q-3-2.46-5.83-5.12a54.42,54.42,0,0,1-5.34-5.69Z"/><path d="M229.17,274a7,7,0,0,0-1.68,2.21,9,9,0,0,0-.82,2.72,11.49,11.49,0,0,0,0,2.87c.06.48.18.95.26,1.43l.41,1.4-.48-1.38c-.1-.47-.25-.94-.33-1.42a11.52,11.52,0,0,1-.17-2.93,9.36,9.36,0,0,1,.71-2.88,7.3,7.3,0,0,1,1.72-2.47.28.28,0,0,1,.4,0,.28.28,0,0,1,0,.4h0Z"/><path d="M226.65,278.8a5.23,5.23,0,0,1-.35,1.84,3.91,3.91,0,0,1-2.63,2.44,6.85,6.85,0,0,1-.9.19c-.31,0-.62,0-.92.05.3,0,.61,0,.91-.08a5.26,5.26,0,0,0,.89-.22,3.77,3.77,0,0,0,1.55-.92,4.5,4.5,0,0,0,1.22-3.29h0a.12.12,0,0,1,.12-.12.11.11,0,0,1,.11.12Z"/><path d="M220.8,284.91a30.73,30.73,0,0,0-6-2.5,11.17,11.17,0,0,0-3.19-.49,3.14,3.14,0,0,0-1.55.33.89.89,0,0,0-.4.65,1.53,1.53,0,0,0,.19.78,1.42,1.42,0,0,1-.22-.78.89.89,0,0,1,.39-.71,3.13,3.13,0,0,1,1.59-.43,11.28,11.28,0,0,1,3.27.35,30.55,30.55,0,0,1,6.19,2.24.32.32,0,1,1-.27.57h0Z"/><path d="M213.51,263.38v11.71l-1-11.67a.5.5,0,0,1,.46-.54.5.5,0,0,1,.54.45Z"/><ellipse class="cls-3" cx="249.85" cy="280.27" rx="20.17" ry="14.17"/></g></svg>